<?xml version="1.0" standalone="no"?>
<!DOCTYPE svg PUBLIC "-//W3C//DTD SVG 20010904//EN"
 "http://www.w3.org/TR/2001/REC-SVG-20010904/DTD/svg10.dtd">
<svg version="1.0" xmlns="http://www.w3.org/2000/svg"
 width="4048.000000pt" height="1419.000000pt" viewBox="0 0 4048.000000 1419.000000"
 preserveAspectRatio="xMidYMid meet">

<g transform="translate(0.000000,1419.000000) scale(0.100000,-0.100000)"
fill="#c96902" stroke="none">
<path d="M9820 8760 l0 -2990 970 0 970 0 0 1220 0 1220 1080 0 1080 0 0
-1220 0 -1220 970 0 970 0 0 2990 0 2990 -970 0 -970 0 0 -1080 0 -1080 -1080
0 -1080 0 0 1080 0 1080 -970 0 -970 0 0 -2990z"/>
<path d="M17180 10028 c1 -1713 5 -2019 35 -2258 96 -771 439 -1344 1010
-1693 401 -244 899 -382 1544 -428 217 -15 816 -6 1011 15 974 108 1625 443
2012 1036 218 333 346 745 388 1245 6 74 10 820 10 1963 l0 1842 -970 0 -969
0 -3 -1877 -3 -1878 -24 -125 c-43 -233 -106 -394 -207 -527 -174 -229 -463
-337 -859 -320 -304 13 -519 91 -693 252 -204 189 -309 471 -332 890 -5 88 -9
931 -10 1873 l0 1712 -970 0 -970 0 0 -1722z"/>
<path d="M24520 8761 l0 -2991 1548 0 c1543 0 1746 4 1997 36 1404 180 2405
1068 2665 2364 48 240 64 406 63 680 0 334 -34 590 -114 869 -96 334 -280 690
-490 947 -444 546 -1109 901 -1924 1028 -318 50 -302 49 -2077 53 l-1668 4 0
-2990z m3037 1634 c717 -94 1110 -539 1184 -1339 14 -156 6 -504 -15 -656
-111 -798 -517 -1215 -1246 -1280 -77 -7 -297 -10 -570 -8 l-445 3 -3 1648 -2
1647 489 0 c384 0 516 -3 608 -15z"/>
<path d="M10458 5210 c-499 -48 -842 -256 -953 -577 -49 -140 -54 -332 -14
-491 81 -318 377 -511 989 -642 383 -82 460 -123 460 -244 0 -54 -34 -100 -95
-127 -48 -22 -166 -25 -229 -7 -58 18 -129 90 -152 156 l-19 52 -532 0 c-483
0 -533 -2 -533 -16 0 -37 34 -144 71 -222 114 -245 317 -411 620 -507 383
-121 945 -121 1314 0 432 141 665 429 665 820 0 455 -306 722 -998 870 -381
82 -440 101 -485 155 -49 58 -26 135 51 167 47 19 159 18 211 -3 50 -20 103
-79 120 -134 l12 -40 499 0 c488 0 500 0 500 19 0 56 -35 176 -75 257 -130
265 -416 434 -845 499 -123 18 -458 27 -582 15z"/>
<path d="M26485 5209 c-696 -65 -1140 -457 -1252 -1109 -23 -134 -23 -440 1
-575 125 -702 649 -1082 1412 -1026 171 13 272 32 370 70 89 35 198 106 253
167 24 25 44 44 46 42 1 -2 10 -40 19 -86 9 -45 21 -94 26 -107 l10 -25 345 0
345 0 0 765 0 765 -680 0 -680 0 0 -320 0 -320 170 0 170 0 0 -35 c0 -19 -9
-59 -21 -89 -51 -138 -224 -209 -387 -161 -72 22 -159 103 -201 189 -73 148
-108 406 -91 661 16 241 61 382 151 480 61 66 117 89 219 89 74 1 93 -3 143
-27 63 -31 104 -81 130 -157 l15 -45 531 -3 c483 -2 531 -1 531 14 0 63 -67
233 -132 335 -236 369 -801 568 -1443 508z"/>
<path d="M29418 5210 c-537 -52 -879 -279 -973 -646 -26 -99 -24 -311 3 -415
41 -154 114 -261 244 -359 164 -124 401 -216 751 -291 379 -81 457 -123 457
-243 0 -54 -34 -100 -95 -127 -48 -22 -166 -25 -229 -7 -57 17 -129 91 -152
157 l-19 51 -533 0 -534 0 7 -42 c17 -97 74 -234 138 -328 139 -203 398 -354
722 -420 367 -75 839 -56 1144 46 435 145 662 428 661 827 -1 291 -124 494
-395 651 -169 97 -374 165 -710 236 -255 53 -318 74 -367 120 -30 29 -38 44
-38 72 0 75 68 120 181 119 115 0 194 -50 225 -143 l16 -48 499 0 499 0 0 23
c-1 58 -34 171 -76 255 -51 105 -138 205 -240 278 -145 104 -370 185 -605 219
-125 18 -460 27 -581 15z"/>
<path d="M12380 3855 l0 -1295 1155 0 c635 0 1155 3 1155 8 0 4 27 157 60 340
33 183 60 334 60 337 0 3 -314 6 -697 7 l-698 3 -3 133 -3 132 621 0 620 0 0
350 0 350 -620 0 -621 0 3 118 3 117 653 3 652 2 0 345 0 345 -1170 0 -1170 0
0 -1295z"/>
<path d="M14970 4805 l0 -345 368 -2 367 -3 3 -947 2 -948 530 0 530 0 2 948
3 947 368 3 367 2 0 345 0 345 -1270 0 -1270 0 0 -345z"/>
<path d="M17690 4805 l0 -345 368 -2 367 -3 3 -947 2 -948 530 0 530 0 2 948
3 947 363 3 362 2 0 345 0 345 -1265 0 -1265 0 0 -345z"/>
<path d="M20530 3855 l0 -1295 535 0 535 0 0 1295 0 1295 -535 0 -535 0 0
-1295z"/>
<path d="M22080 3855 l0 -1295 475 0 475 0 0 443 c0 429 -12 884 -26 1022 -6
53 -4 67 6 63 7 -2 133 -283 279 -623 147 -341 296 -684 331 -762 l64 -143
583 0 583 0 0 1295 0 1295 -472 0 -471 0 7 -597 c3 -329 9 -624 12 -655 5 -48
4 -58 -9 -58 -8 0 -20 15 -28 33 -15 39 -396 875 -504 1110 l-78 167 -614 0
-613 0 0 -1295z"/>
</g>
</svg>
